<?xml version="1.0" standalone="no"?>
<!DOCTYPE svg PUBLIC "-//W3C//DTD SVG 20010904//EN"
 "http://www.w3.org/TR/2001/REC-SVG-20010904/DTD/svg10.dtd">
<svg version="1.0" xmlns="http://www.w3.org/2000/svg"
 width="1920.000000pt" height="1920.000000pt" viewBox="0 0 1920.000000 1920.000000"
 preserveAspectRatio="xMidYMid meet">

<g transform="translate(0.000000,1920.000000) scale(0.100000,-0.100000)"
fill="#000000" stroke="none">
<path d="M9215 18444 c-379 -20 -818 -76 -1185 -150 -205 -42 -832 -193 -1017
-245 -652 -185 -1292 -460 -1873 -807 -343 -205 -891 -591 -1217 -858 -489
-402 -917 -849 -1306 -1363 -584 -772 -932 -1373 -1222 -2111 -153 -387 -245
-693 -378 -1255 -148 -623 -195 -897 -244 -1415 -25 -264 -25 -1026 0 -1290
49 -518 96 -792 244 -1415 133 -562 225 -868 378 -1255 290 -737 638 -1339
1221 -2111 457 -604 971 -1118 1562 -1562 570 -429 986 -694 1460 -931 597
-299 1092 -474 1853 -657 662 -159 976 -212 1529 -261 195 -17 975 -17 1170 0
553 49 867 102 1529 261 761 183 1256 358 1853 657 474 237 890 502 1460 931
582 438 1104 958 1547 1543 593 782 942 1384 1236 2130 152 385 245 693 378
1255 148 623 195 897 244 1415 25 264 25 1026 0 1290 -49 518 -96 792 -244
1415 -133 562 -225 868 -378 1255 -290 737 -635 1333 -1221 2110 -451 598
-974 1121 -1562 1563 -786 591 -1376 933 -2112 1222 -382 151 -698 246 -1255
378 -626 149 -909 198 -1405 243 -166 15 -870 27 -1045 18z m35 -2985 l0
-1851 -247 6 c-282 7 -466 14 -568 22 -38 2 -178 11 -310 20 -366 22 -1062 87
-1165 109 -14 3 -67 10 -119 15 -51 6 -97 13 -102 16 -5 2 -4 15 1 27 5 12 19
56 31 97 27 93 147 458 159 485 5 11 19 47 31 80 27 75 87 233 99 260 29 63
50 115 50 120 0 4 6 21 14 38 20 45 58 129 96 217 47 107 216 443 259 514 20
34 42 72 49 86 15 29 18 35 96 160 63 102 167 262 176 270 3 3 16 21 29 40 67
96 235 303 319 392 313 331 565 515 897 658 11 5 52 18 90 30 39 12 79 26 90
30 11 5 21 9 23 9 1 1 2 -832 2 -1850z m815 1811 c189 -59 417 -184 613 -337
220 -173 523 -497 693 -743 13 -19 26 -37 29 -40 9 -8 113 -168 176 -270 78
-126 82 -132 93 -156 5 -11 27 -50 49 -86 46 -75 212 -404 266 -528 21 -47 44
-98 51 -115 8 -16 32 -75 55 -130 22 -55 45 -109 50 -120 15 -35 36 -88 59
-150 12 -33 29 -75 37 -93 8 -18 14 -37 14 -43 0 -6 6 -25 14 -42 17 -38 134
-389 165 -497 12 -41 26 -85 31 -97 5 -12 6 -24 1 -27 -8 -5 -168 -26 -391
-52 -569 -66 -1263 -114 -1857 -129 l-263 -7 0 1851 0 1851 23 -9 c12 -5 54
-19 92 -31z m-2436 -218 c-30 -31 -74 -81 -99 -111 -25 -30 -61 -74 -80 -97
-19 -23 -44 -54 -55 -70 -11 -15 -38 -51 -60 -78 -46 -59 -63 -83 -136 -192
-30 -43 -56 -81 -59 -84 -5 -4 -84 -130 -115 -182 -5 -9 -36 -60 -67 -113 -32
-53 -58 -98 -58 -100 0 -2 -20 -37 -44 -78 -41 -68 -276 -538 -276 -551 0 -3
-13 -33 -29 -68 -47 -99 -141 -326 -141 -338 0 -5 -4 -18 -10 -28 -18 -33 -33
-72 -127 -332 -48 -134 -129 -377 -142 -430 -7 -25 -16 -54 -21 -65 -9 -21
-44 -140 -56 -188 -4 -16 -13 -31 -21 -34 -29 -11 -599 104 -955 193 -32 8
-84 20 -115 28 -84 21 -277 73 -358 97 -38 11 -88 24 -110 30 -22 5 -49 13
-60 18 -11 5 -54 19 -95 31 -85 25 -275 87 -305 100 -11 4 -85 32 -165 60
-125 45 -206 77 -218 86 -14 10 269 325 483 539 150 150 393 375 460 426 17
13 59 48 95 79 36 30 83 69 104 85 21 17 83 64 137 105 54 41 107 82 119 90
12 8 44 31 70 50 283 205 659 430 1031 617 103 51 189 93 192 93 3 0 40 16 84
36 43 19 87 39 98 44 74 32 121 52 205 84 52 20 104 41 115 45 39 17 221 80
335 117 63 20 124 40 135 44 11 5 36 12 55 16 19 3 41 10 50 15 8 4 38 13 65
20 28 7 79 20 115 30 36 9 69 18 74 18 5 1 -15 -25 -45 -57z m3966 40 c55 -13
265 -72 290 -82 11 -4 72 -24 135 -44 114 -37 296 -100 335 -117 11 -4 63 -25
115 -45 84 -32 131 -52 205 -84 11 -5 55 -25 98 -44 44 -20 81 -36 84 -36 9 0
373 -184 473 -240 255 -141 563 -334 750 -470 26 -19 58 -42 70 -50 12 -8 65
-49 119 -90 54 -41 116 -88 137 -105 21 -16 68 -55 104 -85 36 -31 79 -66 95
-79 64 -48 307 -273 451 -416 198 -197 505 -539 493 -549 -12 -9 -92 -40 -219
-86 -80 -28 -154 -56 -165 -60 -30 -13 -220 -75 -305 -100 -41 -12 -84 -26
-95 -31 -11 -5 -38 -13 -60 -18 -22 -6 -71 -19 -110 -30 -98 -29 -291 -81
-345 -92 -25 -6 -54 -14 -65 -19 -11 -5 -38 -11 -60 -15 -22 -4 -60 -13 -85
-20 -86 -25 -572 -127 -792 -166 -79 -14 -93 -10 -102 28 -12 48 -47 167 -56
188 -5 11 -14 40 -21 65 -13 53 -93 295 -142 430 -42 115 -114 307 -126 335
-5 11 -32 79 -61 150 -29 72 -68 163 -86 203 -19 41 -34 76 -34 79 0 12 -236
483 -276 550 -24 41 -44 76 -44 78 0 2 -26 47 -57 100 -32 53 -62 104 -68 113
-31 52 -110 178 -115 182 -3 3 -29 41 -59 84 -73 109 -90 133 -136 192 -22 27
-49 63 -60 78 -34 48 -170 210 -240 285 -33 36 -43 52 -30 48 11 -4 38 -10 60
-15z m-8304 -3143 c41 -17 88 -36 104 -44 17 -7 113 -43 215 -80 102 -37 194
-71 205 -75 52 -20 262 -89 358 -116 26 -8 70 -21 97 -29 245 -74 366 -108
460 -131 30 -7 84 -20 120 -29 232 -57 420 -100 570 -130 36 -7 121 -24 190
-39 69 -14 134 -26 145 -26 43 0 46 -20 11 -64 -83 -102 -86 -123 -86 -566 0
-206 -5 -406 -11 -445 -95 -664 -155 -1319 -174 -1905 -3 -96 -8 -199 -11
-227 -5 -49 -7 -53 -32 -53 -15 0 -32 4 -38 8 -8 4 -13 68 -16 182 -4 148 -8
184 -27 231 -37 96 -93 171 -182 245 -103 85 -126 100 -197 127 -56 22 -67 22
-815 25 -493 2 -778 -1 -815 -8 -139 -25 -296 -147 -342 -265 -22 -55 -24 -78
-28 -295 -3 -163 -7 -237 -15 -242 -7 -4 -261 -8 -564 -8 l-553 0 0 45 c0 50
36 460 46 513 3 18 12 84 19 145 32 249 115 660 179 892 34 123 48 172 56 195
4 14 20 66 35 115 33 110 83 263 95 290 12 25 38 100 52 145 5 19 13 40 17 45
4 6 16 33 26 60 9 28 23 64 30 80 8 17 41 95 75 175 115 271 300 628 473 913
40 64 77 125 82 135 36 61 160 242 166 242 4 0 40 -14 80 -31z m12779 -81 c41
-62 79 -121 85 -130 281 -466 414 -717 555 -1048 34 -80 67 -158 75 -175 7
-16 21 -52 30 -80 10 -27 22 -54 25 -60 4 -5 19 -46 34 -90 15 -44 31 -89 36
-100 12 -27 62 -180 95 -290 15 -49 31 -101 35 -115 5 -14 15 -50 24 -80 8
-30 22 -80 30 -110 9 -30 27 -104 41 -165 54 -233 72 -317 86 -395 6 -36 17
-101 25 -145 8 -44 21 -130 28 -192 8 -61 17 -127 20 -145 10 -53 46 -463 46
-513 l0 -45 -549 0 c-302 0 -556 3 -565 6 -14 5 -16 29 -16 159 0 262 -21 319
-172 467 -108 106 -196 159 -297 178 -33 6 -342 10 -790 10 -803 0 -796 0
-905 -58 -82 -43 -179 -146 -205 -217 -35 -93 -41 -144 -41 -345 0 -203 1
-200 -55 -200 -21 0 -24 6 -29 53 -3 28 -8 124 -10 212 -8 232 -25 573 -31
625 -4 25 -13 124 -21 220 -24 293 -69 720 -84 790 -5 25 -12 78 -16 119 -3
41 -11 88 -16 105 -6 17 -14 207 -18 421 -6 365 -8 394 -28 449 -27 72 -69
139 -116 185 -20 19 -36 40 -36 46 0 6 28 17 63 24 34 7 96 19 137 27 41 9
104 22 140 29 36 8 90 19 120 24 94 18 325 70 425 95 33 8 89 22 125 31 210
52 373 95 430 115 14 5 52 16 85 25 130 36 471 144 520 165 11 4 103 38 205
75 102 37 194 71 205 76 11 5 56 24 100 43 44 19 85 35 91 35 5 1 44 -50 84
-111z m-8414 -649 c77 -29 164 -116 193 -193 21 -56 21 -68 21 -814 l0 -757
-29 -62 c-37 -77 -96 -137 -170 -172 l-56 -26 -770 0 -770 0 -56 28 c-67 32
-141 108 -172 174 l-22 48 0 770 0 770 28 57 c45 91 125 160 217 189 14 4 363
8 777 8 742 1 753 1 809 -20z m2732 -14 c82 -45 148 -123 172 -204 20 -65 21
-86 18 -806 l-3 -740 -27 -57 c-35 -75 -95 -138 -165 -174 l-58 -29 -770 0
-770 0 -67 33 c-104 51 -166 133 -187 247 -17 92 -15 1423 3 1496 26 112 108
209 210 248 50 20 73 20 821 18 l770 -2 53 -30z m2700 0 c78 -39 118 -79 160
-158 l27 -52 0 -775 0 -775 -26 -55 c-33 -69 -97 -133 -169 -168 l-55 -27
-770 0 -770 0 -57 28 c-73 36 -150 119 -178 193 -20 55 -20 66 -18 818 l3 761
27 52 c42 79 82 119 160 158 l71 35 762 0 762 0 71 -35z m-4750 -262 l42 -5 0
-247 c0 -393 10 -1212 16 -1257 14 -118 162 -317 299 -403 94 -59 155 -71 366
-71 l189 0 0 -75 0 -75 -223 0 c-302 0 -377 -21 -498 -140 -113 -111 -139
-201 -139 -476 0 -166 -2 -193 -16 -198 -20 -8 -238 -8 -258 0 -14 5 -16 28
-16 154 0 175 -9 233 -52 320 -38 78 -173 216 -263 270 -117 69 -111 69 -877
69 l-688 1 0 38 c0 20 3 54 6 75 l7 37 726 0 c640 0 734 2 782 16 142 42 242
126 310 260 l43 86 6 166 c3 92 5 461 5 820 l0 654 95 -6 c52 -4 114 -9 138
-13z m2749 -58 c2 -38 4 -383 6 -765 3 -690 3 -695 25 -751 73 -184 260 -361
422 -398 29 -7 296 -11 736 -11 l691 0 7 -37 c3 -21 6 -55 6 -75 l0 -38 -737
0 c-583 0 -749 -3 -788 -14 -133 -35 -248 -123 -303 -232 -50 -99 -55 -131
-53 -353 2 -158 -1 -206 -11 -212 -15 -10 -238 -12 -262 -3 -14 5 -16 28 -16
148 -1 203 -21 283 -102 397 -48 69 -175 176 -258 219 -81 41 -142 50 -330 50
l-170 0 0 75 0 75 210 0 c236 0 287 8 383 57 77 41 173 137 211 211 57 112 55
93 58 934 l3 777 60 5 c33 3 74 8 90 10 17 2 50 3 75 2 l45 -1 2 -70z m-6113
-2245 c68 -35 127 -95 162 -165 l29 -60 3 -749 c2 -680 1 -754 -14 -800 -38
-116 -114 -192 -230 -230 -46 -15 -121 -16 -800 -14 l-749 3 -57 28 c-76 37
-134 96 -169 171 l-29 63 2 774 3 774 23 43 c44 83 118 148 201 178 29 11 194
13 806 11 l770 -2 49 -25z m2714 -5 c70 -38 136 -112 162 -181 20 -55 20 -68
18 -823 l-3 -766 -28 -53 c-36 -68 -94 -124 -165 -159 l-57 -28 -749 -3 c-680
-2 -754 -1 -800 14 -98 33 -165 90 -213 184 l-28 55 0 770 0 770 26 56 c35 74
95 133 172 170 l62 29 775 -2 775 -3 53 -30z m2687 6 c71 -35 90 -51 137 -113
70 -91 69 -84 66 -908 l-3 -735 -26 -56 c-37 -79 -90 -133 -167 -171 l-67 -33
-744 -3 c-641 -2 -752 0 -797 13 -123 36 -222 147 -243 272 -8 48 -11 280 -9
783 l3 715 29 62 c41 89 128 167 216 194 14 4 367 8 785 8 l760 1 60 -29z
m2706 1 c70 -34 122 -84 160 -154 l34 -63 3 -761 2 -762 -21 -58 c-32 -86
-122 -173 -208 -202 -64 -22 -72 -22 -796 -22 -724 0 -732 0 -796 22 -86 29
-176 116 -207 201 -22 57 -22 64 -22 800 0 452 4 756 10 777 17 61 73 143 125
182 93 70 47 67 900 65 l770 -2 46 -23z m2708 0 c70 -38 135 -106 167 -175
l29 -62 3 -710 c3 -734 0 -811 -37 -883 -35 -67 -89 -120 -159 -154 l-67 -33
-765 0 -765 0 -67 33 c-77 38 -130 92 -167 171 l-26 56 -3 740 c-2 719 -2 742
18 807 31 102 125 196 230 229 14 4 372 7 795 6 l770 -2 44 -23z m-12812
-1350 c8 -5 13 -75 18 -222 3 -118 11 -236 16 -262 6 -27 28 -74 48 -105 53
-81 186 -214 247 -246 110 -58 101 -57 919 -57 810 0 796 -1 905 55 68 35 169
130 203 193 47 86 55 141 61 396 6 255 6 256 57 256 l27 0 6 -132 c26 -561 38
-798 46 -893 6 -60 14 -159 20 -220 14 -160 38 -393 54 -525 8 -63 22 -173 30
-245 9 -71 18 -140 21 -153 23 -97 38 -296 44 -562 7 -298 8 -306 33 -360 13
-31 46 -81 72 -113 25 -32 49 -70 52 -86 6 -26 3 -29 -27 -34 -47 -6 -146 -25
-194 -37 -22 -5 -89 -19 -150 -30 -60 -12 -162 -33 -225 -47 -63 -14 -142 -32
-175 -39 -104 -23 -348 -84 -515 -130 -30 -8 -76 -21 -102 -27 -25 -7 -50 -15
-54 -20 -4 -4 -15 -7 -25 -7 -10 0 -38 -6 -61 -14 -24 -7 -83 -26 -133 -41
-158 -48 -530 -173 -580 -196 -11 -5 -67 -27 -125 -48 -111 -42 -166 -64 -215
-86 -72 -33 -78 -31 -120 32 -75 115 -223 350 -264 420 -170 293 -426 823
-506 1048 -10 28 -22 54 -27 59 -4 6 -8 16 -8 24 0 8 -7 28 -15 45 -27 60
-122 341 -172 512 -109 374 -186 728 -238 1100 -35 242 -73 712 -66 798 1 9
1102 9 1118 -1z m5400 0 c7 -5 13 -71 18 -202 8 -268 22 -320 116 -441 100
-129 185 -195 297 -229 54 -17 93 -20 253 -20 l189 0 0 -85 0 -85 -223 0
c-240 0 -295 -8 -393 -55 -102 -50 -199 -185 -224 -310 -8 -43 -10 -276 -8
-826 l3 -765 -143 -12 c-79 -7 -150 -8 -158 -4 -12 7 -14 113 -14 748 0 803 1
793 -56 907 -34 68 -182 213 -261 255 -118 63 -108 62 -859 62 l-681 0 -7 31
c-3 17 -6 56 -6 85 l0 54 734 0 c707 0 736 1 799 20 68 21 163 79 209 127 41
43 97 142 113 198 9 33 15 135 19 294 4 181 9 247 18 253 16 10 249 10 265 0z
m2711 0 c9 -6 13 -63 15 -228 l2 -221 43 -86 c55 -111 180 -247 273 -297 115
-61 98 -60 862 -60 l697 0 0 -54 c0 -29 -3 -67 -6 -84 l-6 -31 -757 -3 -756
-3 -57 -23 c-133 -54 -229 -154 -268 -280 -21 -66 -21 -81 -20 -835 0 -423 3
-781 6 -796 4 -21 1 -30 -11 -35 -10 -3 -84 -1 -164 6 l-146 12 3 719 c1 455
-1 741 -8 775 -22 119 -88 222 -204 319 -150 126 -205 143 -458 143 l-178 0 0
85 0 85 218 0 c240 0 280 7 380 60 108 57 210 188 240 305 6 22 13 148 16 279
5 175 10 242 19 248 16 10 248 10 265 0z m2699 0 c9 -6 14 -65 18 -208 7 -223
19 -291 68 -372 44 -75 191 -222 253 -255 110 -58 101 -57 920 -57 722 0 754
1 816 20 156 48 289 181 326 325 6 22 13 152 16 289 4 187 9 252 18 258 7 4
263 7 568 5 l554 -2 -3 -100 c-3 -110 -44 -543 -66 -700 -52 -373 -129 -726
-238 -1100 -50 -171 -145 -452 -172 -512 -8 -17 -15 -37 -15 -45 0 -8 -4 -18
-8 -24 -5 -5 -17 -31 -27 -59 -80 -225 -336 -755 -506 -1048 -41 -70 -189
-305 -264 -420 -42 -63 -48 -65 -120 -32 -49 22 -104 44 -215 86 -58 21 -114
43 -125 48 -52 23 -428 151 -580 196 -49 15 -101 31 -115 35 -24 8 -45 14
-210 60 -41 11 -88 25 -105 30 -24 7 -312 78 -530 130 -88 21 -184 42 -260 57
-44 8 -109 21 -145 28 -36 7 -92 18 -125 24 -78 15 -145 32 -145 38 0 3 11 19
26 35 14 17 36 53 50 81 45 87 54 160 54 437 0 192 5 294 20 412 11 87 22 168
25 180 3 13 12 82 21 153 8 72 22 182 29 245 8 63 19 162 25 220 6 58 15 141
20 185 6 44 15 148 20 230 6 83 12 161 15 175 2 14 11 176 20 360 8 184 18
395 21 468 l6 132 27 0 c14 0 32 -4 38 -8z m-6202 -1193 c109 -20 197 -84 251
-181 l29 -53 0 -785 0 -785 -27 -51 c-41 -79 -126 -150 -207 -174 -65 -20 -86
-21 -806 -18 l-740 3 -56 26 c-76 36 -129 86 -170 161 l-34 63 0 770 0 770 27
57 c51 110 154 185 272 198 105 12 1396 11 1461 -1z m2763 -11 c105 -42 186
-132 217 -239 14 -50 15 -144 13 -795 l-3 -739 -26 -56 c-37 -79 -90 -133
-167 -171 l-67 -33 -739 -3 c-815 -3 -798 -4 -898 60 -53 33 -109 104 -136
169 -16 41 -17 104 -17 799 l0 755 28 60 c50 107 150 187 256 205 25 4 372 7
771 6 658 -1 729 -3 768 -18z m2642 11 c122 -19 226 -103 269 -216 21 -54 21
-68 21 -804 0 -728 -1 -750 -20 -803 -23 -61 -85 -136 -140 -171 -88 -55 -83
-55 -865 -55 -782 0 -777 0 -865 55 -55 35 -117 111 -140 172 -20 54 -20 69
-18 817 l3 761 23 47 c53 105 148 179 253 197 79 13 1399 13 1479 0z m-3732
-4347 c2 -1508 0 -1854 -11 -1858 -21 -8 -210 58 -326 114 -138 67 -330 192
-476 311 -76 62 -398 395 -460 476 -38 50 -72 92 -75 95 -8 7 -113 154 -185
260 -172 253 -428 733 -574 1075 -99 233 -126 299 -182 450 -12 33 -25 69 -30
80 -15 37 -101 290 -111 325 -5 19 -20 67 -33 105 -48 145 -68 226 -59 235 20
20 697 93 1239 135 371 28 918 53 1145 51 l135 -1 3 -1853z m1117 1848 c491
-19 818 -39 1215 -76 453 -42 860 -90 874 -104 6 -6 0 -40 -13 -87 -35 -118
-180 -556 -191 -575 -6 -10 -10 -22 -10 -28 0 -16 -121 -319 -203 -510 -152
-355 -400 -817 -582 -1085 -70 -103 -165 -236 -175 -245 -3 -3 -37 -45 -75
-95 -62 -81 -384 -414 -460 -476 -146 -119 -338 -244 -476 -311 -116 -56 -305
-122 -326 -114 -11 4 -13 353 -13 1854 0 1017 3 1852 7 1855 8 9 145 8 428 -3z
m-4331 -302 c2 -7 11 -35 19 -63 110 -371 312 -951 397 -1140 28 -63 50 -115
50 -119 0 -10 102 -229 198 -426 209 -426 518 -919 752 -1196 22 -27 60 -71
83 -99 23 -27 64 -74 91 -103 27 -29 47 -55 44 -58 -4 -3 -27 2 -52 10 -26 9
-53 16 -61 16 -8 0 -34 6 -57 14 -24 8 -77 24 -118 36 -238 71 -664 224 -805
290 -11 5 -42 19 -70 30 -139 60 -187 84 -400 191 -349 176 -522 277 -830 482
-385 258 -675 489 -1024 818 -257 242 -643 662 -624 679 19 17 500 188 703
250 41 13 93 29 115 36 22 7 67 20 100 29 33 9 80 23 105 30 94 28 374 100
525 135 50 11 108 25 130 30 121 29 189 43 380 80 116 22 224 44 240 49 46 14
105 13 109 -1z m7215 2 c20 -5 131 -28 246 -50 191 -37 259 -51 380 -80 22 -5
81 -19 130 -30 123 -29 290 -71 448 -114 31 -9 81 -22 110 -30 28 -8 84 -24
122 -36 39 -11 84 -25 100 -29 32 -9 80 -24 245 -78 135 -45 512 -184 523
-193 5 -4 -40 -63 -98 -131 -289 -335 -663 -695 -990 -955 -55 -43 -102 -81
-105 -84 -51 -52 -483 -351 -714 -495 -236 -146 -701 -389 -956 -499 -19 -8
-55 -23 -80 -34 -92 -40 -380 -152 -390 -152 -6 0 -18 -5 -28 -10 -24 -14
-330 -113 -492 -159 -41 -12 -99 -29 -128 -37 -30 -9 -56 -13 -59 -10 -4 3 16
29 43 58 27 29 68 76 91 103 23 28 61 72 83 99 120 143 348 471 473 681 131
221 297 538 393 752 14 32 39 86 55 121 16 35 29 66 29 68 0 4 22 56 50 119
85 189 287 769 397 1140 8 28 17 56 19 63 4 14 53 16 103 2z"/>
<path d="M3316 13369 c-115 -27 -263 -154 -307 -266 l-24 -58 0 -710 c0 -390
2 -766 5 -835 7 -156 25 -198 139 -327 88 -101 141 -142 234 -182 l62 -26 770
-3 c515 -2 786 1 819 8 178 38 335 195 374 375 16 72 28 1480 13 1560 -6 33
-29 97 -51 142 -34 69 -54 95 -125 160 -109 99 -154 129 -233 153 -62 19 -92
20 -851 19 -434 -1 -803 -5 -825 -10z m1649 -158 c75 -35 136 -95 172 -169
l28 -57 3 -749 c2 -740 2 -750 -19 -813 -27 -81 -98 -161 -177 -200 l-57 -28
-770 0 -770 0 -57 27 c-68 31 -133 95 -168 164 l-25 49 0 785 0 785 30 53 c37
69 112 135 178 161 50 19 77 20 812 20 l760 1 60 -29z"/>
<path d="M14140 13371 c-106 -21 -247 -136 -300 -244 -51 -106 -53 -137 -45
-942 7 -806 6 -796 65 -900 46 -80 189 -226 257 -263 119 -63 102 -62 928 -62
827 0 796 -2 918 63 68 36 175 146 206 212 43 92 44 115 45 930 l1 780 -23 56
c-12 31 -36 77 -53 102 -38 58 -200 200 -259 228 -104 50 -82 49 -919 48 -432
-1 -802 -4 -821 -8z m1658 -165 c67 -38 126 -102 160 -174 l27 -57 3 -710 c2
-473 -1 -732 -8 -779 -19 -124 -85 -211 -199 -265 l-56 -26 -765 0 -765 0 -67
33 c-77 38 -130 92 -167 171 l-26 56 -3 740 c-3 718 -2 741 18 806 30 100 116
188 219 225 29 11 193 13 806 11 l770 -2 53 -29z"/>
<path d="M3331 8214 c-129 -35 -240 -125 -298 -242 l-28 -57 -3 -799 c-3 -883
-4 -867 61 -974 45 -76 199 -222 269 -256 32 -16 86 -32 120 -36 86 -11 1457
-12 1541 -1 88 12 163 49 238 118 66 61 97 109 131 199 l23 59 0 780 0 780
-29 70 c-37 90 -83 151 -176 231 -80 70 -147 107 -231 129 -80 22 -1538 21
-1618 -1z m1543 -114 c118 -19 214 -91 264 -198 l27 -57 0 -765 0 -765 -26
-56 c-37 -79 -90 -133 -167 -171 l-67 -33 -740 -3 c-720 -2 -742 -2 -807 18
-88 27 -173 102 -212 189 l-26 60 2 773 3 773 23 43 c52 97 141 167 242 188
69 15 1395 19 1484 4z"/>
<path d="M14158 8219 c-60 -14 -156 -66 -205 -112 -54 -50 -87 -100 -116 -176
-21 -55 -22 -68 -25 -806 -2 -519 1 -770 8 -817 16 -95 56 -171 143 -270 86
-97 140 -139 225 -171 57 -22 59 -22 847 -22 757 0 793 1 850 20 117 38 242
160 288 281 l22 59 3 769 c2 533 -1 785 -8 822 -20 95 -63 164 -159 257 -93
89 -173 138 -266 163 -40 11 -204 14 -810 13 -418 -1 -777 -5 -797 -10z m1529
-118 c81 -12 140 -42 196 -100 58 -59 86 -113 98 -193 6 -39 9 -337 7 -773 -3
-640 -5 -714 -20 -753 -43 -108 -133 -189 -239 -217 -79 -21 -1458 -22 -1537
-1 -72 19 -134 58 -175 109 -89 110 -87 84 -87 908 0 795 -1 775 67 876 52 78
141 131 243 147 55 8 1389 5 1447 -3z"/>
</g>
</svg>
